#!OML:ASF F:\VICON\USERDATA\INSTALL\rory3\rory3.ASF
:FULLY-SPECIFIED
:DEGREES
96
root 0.15125514361458475 17.64177442074455 -15.6587626686948 19.151406280155427 0.5883172273618331 -0.5496573123787526
lfemur -40.63134567866979 6.405474746884194 -19.829493920359646
ltibia 55.74780443132332
lfoot -13.814546926739508 7.721861131633586
ltoes 5.972752209519909
rfemur -44.032764000064674 -4.936252627049827 20.787929890295562
rtibia 49.46400596898185
rfoot -22.607105842535848 -7.6334472135867335
rtoes 7.156879531626982
lowerback 5.203832208559315 -0.13650472139533776 -1.4490292881570888
upperback 3.533766151530093 -0.22576134636982687 1.5408203812912202
thorax -0.5436537915570274 -0.12069886495221467 1.6364701370875818
lowerneck -16.37285571278166 -1.161301740201241 -2.0382891438731074
upperneck 24.857406083791073 -0.7306080746835847 -1.829447234060293
head 11.44083491196997 -0.8442538873942287 -0.20894457385439813
lclavicle -1.2626586481334412e-17 -8.167464709950629e-16
lhumerus -16.03580722545424 -3.231324606478525 88.27290876763915
lradius 20.963002639969332
lwrist 9.32649258946396
lhand -27.924593098126554 -4.650920569764812
lfingers 7.125019999999999
lthumb -0.023884350528231124 26.372915508220622
rclavicle -1.105625534343151e-17 -8.151765019572251e-16
rhumerus -19.301721510340478 -2.6776899551644546 -82.92064984263362
rradius 28.530444640713455
rwrist 26.82785642010854
rhand -20.19831155017569 -27.1581103257693
rfingers 7.125019999999999
rthumb 5.962618985611419 -57.27565306106797
97
root 0.11786303421129163 17.59851298325766 -15.630169692330398 19.381582615007886 0.7057454575305739 -0.47838601131347447
lfemur -41.375144198559674 6.37995310298955 -19.8976015615207
ltibia 57.866176697718515
lfoot -14.052282614294175 8.267246095925133
ltoes 5.797580382259886
rfemur -44.44964057530765 -5.0055043684183 20.765159262040292
rtibia 49.879932938053166
rfoot -22.87239045149057 -7.9641203432804994
rtoes 7.628434924863908
lowerback 5.133504226798527 -0.12717659261064584 -1.48648914284981
upperback 3.505662750602405 -0.21490862036083008 1.5204316669891769
thorax -0.6427041415725152 -0.1153342257342575 1.667106012901087
lowerneck -16.39599581477958 -1.4754995064060181 -2.1136509008001023
upperneck 24.514411873073616 -1.0772160485656779 -1.7582940900098012
head 11.31590374107955 -1.029240243526635 -0.12243974246018341
lclavicle -1.2546449750405246e-17 -8.166368029813166e-16
lhumerus -15.769957935710133 -3.514957678112024 88.37865040346752
lradius 21.066371585045815
lwrist 9.238599727136915
lhand -28.337156690638455 -4.911322135136835
lfingers 7.125019999999999
lthumb -0.5374508981833263 26.178625968023432
rclavicle -1.1106140869559832e-17 -8.152419691610151e-16
rhumerus -19.111542718750133 -2.8432334925864686 -83.11087474206794
rradius 28.552004961517852
rwrist 26.65488032155884
rhand -20.34206575673213 -27.1999946479397
rfingers 7.125019999999999
rthumb 5.863421778533009 -57.29686250050651
98
root 0.0880415463573706 17.575823968194015 -15.574742771844788 19.52960463348272 0.9220137339385845 -0.42893427969466347
lfemur -41.97685192355772 6.356192626830306 -19.947902265574516
ltibia 59.620388871278266
lfoot -14.19259230908518 8.726239227002605
ltoes 5.649407594932115
rfemur -44.413313684931566 -5.092882866596823 20.747419073663092
rtibia 49.66900086057516
rfoot -22.93968660178179 -8.17893715514385
rtoes 8.199308100701215
lowerback 4.993702983914717 -0.16001367009127512 -1.452316510439819
upperback 3.4893339479462644 -0.2573624062365788 1.5130971606512063
thorax -0.6330776089592955 -0.13751488480049237 1.6917426660784254
lowerneck -16.334586223114936 -1.7862120347117272 -2.2113172819117635
upperneck 24.298113869874737 -1.4137724961428606 -1.684225407345799
head 11.19897048107328 -1.22127098541127 -0.03417760481306009
lclavicle -1.2350595375654436e-17 -8.163916274466689e-16
lhumerus -15.594181989631183 -3.8544845537423145 88.46405379177448
lradius 21.09909865736977
lwrist 9.011608097772596
lhand -28.547590491761266 -5.084915758685671
lfingers 7.125019999999999
lthumb -0.8858418693903544 26.02261667289539
rclavicle -1.1218489586449988e-17 -8.153910704543662e-16
rhumerus -18.9799214782993 -2.854453067805124 -83.26351259321176
rradius 28.71176919813593
rwrist 26.30432134318093
rhand -20.50309566362161 -27.240813534590373
rfingers 7.125019999999999
rthumb 5.773204376192148 -57.30723362306687
99
root 0.057974097489160326 17.57078015834602 -15.48610372907732 19.61350369553141 1.0442011394042587 -0.3316911286071832
lfemur -42.417314618821166 6.3683971693262915 -20.039092749574184
ltibia 60.82451102955257
lfoot -14.25727874472593 9.10259325490468
ltoes 5.419221206665759
rfemur -44.17606389718216 -5.1426036499337835 20.648686390134348
rtibia 49.086975818577656
rfoot -22.777657218543556 -8.254682629640229
rtoes 8.85415947511665
lowerback 4.871697373922684 -0.1607604906242921 -1.4939487012568635
upperback 3.500780467644103 -0.2583693246986114 1.4827819621113882
thorax -0.5455645461545657 -0.14308538797534012 1.708069262276043
lowerneck -16.200925287856684 -2.0866849897030963 -2.333135476046936
upperneck 24.182071438574656 -1.730277213873284 -1.6062646723110343
head 11.092341232894102 -1.4011108144226454 0.053498949735786394
lclavicle -1.2225792774897281e-17 -8.162333683005665e-16
lhumerus -15.492098473177174 -3.9783042839878497 88.42846807147475
lradius 21.08048144105218
lwrist 8.673386002677566
lhand -28.5646815811126 -5.187359874749452
lfingers 7.125019999999999
lthumb -1.066551603323484 25.911734213886724
rclavicle -1.1283534867261227e-17 -8.154772458879368e-16
rhumerus -18.893336447957672 -2.8251024936213827 -83.34704650560244
rradius 28.86291329418293
rwrist 25.89806395828215
rhand -20.689794204772074 -27.29345895094864
rfingers 7.125019999999999
rthumb 5.681777121639296 -57.32163204928515
100
root 0.029219578696829396 17.57266727973524 -15.368339328177683 19.59482750244493 1.1158120519994827 -0.32183313541848124
lfemur -42.865704503220286 6.414077455327567 -20.064032543975113
ltibia 61.66664287019738
lfoot -14.192037042272888 9.360514020325208
ltoes 5.181160247409478
rfemur -43.511617454180445 -5.214605359342038 20.642022363395558
rtibia 48.1227694898467
rfoot -22.430568780392825 -8.15115118298047
rtoes 9.52003207781964
lowerback 4.816189150016081 -0.15811820996174816 -1.4273370851831166
upperback 3.5783396987066602 -0.2517363192419421 1.4764749656886151
thorax -0.37939575896485955 -0.14426941647569336 1.703735245372291
lowerneck -16.03132801664877 -2.3645993398424077 -2.450258280391833
upperneck 24.174987720151144 -2.0139294809729065 -1.5277214156709342
head 10.99810020646606 -1.5570533636279231 0.13733535018396315
lclavicle -1.2188910765047434e-17 -8.161987231895486e-16
lhumerus -15.463717437293145 -4.143632721704206 88.32340232819816
lradius 20.95898532185934
lwrist 8.232641148012803
lhand -28.467222109620714 -5.245432226319453
lfingers 7.125019999999999
lthumb -1.1605220583783495 25.837573171183553
rclavicle -1.1351811436261689e-17 -8.155668922253459e-16
rhumerus -18.851715929261733 -2.825167898949901 -83.3687929165879
rradius 28.98998108518368
rwrist 25.491027015750156
rhand -20.87345110980279 -27.33108820844809
rfingers 7.125019999999999
rthumb 5.6073986431875475 -57.31163842079779
101
root 9.556124207965588e-05 17.582241135334826 -15.231569316523256 19.486936459015606 1.2443861016743807 -0.2500704940685049
lfemur -43.1304070678539 6.441680255187828 -20.155102412922428
ltibia 62.141419987822985
lfoot -14.113354981299786 9.476414728557135
ltoes 5.035504508199483
rfemur -42.60431240301939 -5.361474702356919 20.571136291241924
rtibia 46.9709101413644
rfoot -21.972702258099414 -7.888819640931464
rtoes 10.242980131871185
lowerback 4.817576618164903 -0.18593453594510523 -1.4529201799892268
upperback 3.697669505724329 -0.29109061810504044 1.4565446462444596
thorax -0.16668396710149702 -0.16996295620783552 1.7177255207810924
lowerneck -15.810921621557709 -2.5929884222571804 -2.574748259596702
upperneck 24.320467256838494 -2.253186217240665 -1.4249086677219576
head 10.979933179448725 -1.6882730067154434 0.22990006602438584
lclavicle -1.2136936880848983e-17 -8.16150819816042e-16
lhumerus -15.50385515155334 -4.500434737505954 88.21029562267982
lradius 20.813826061174947
lwrist 7.799491854272248
lhand -28.349066436770034 -5.288840244391096
lfingers 7.125019999999999
lthumb -1.2598906772724434 25.733901377322272
rclavicle -1.1278239839512667e-17 -8.154702152490288e-16
rhumerus -18.82998563589351 -2.8606504379540834 -83.34612180869767
rradius 29.10003679216065
rwrist 25.1452383393206
rhand -21.06436729094041 -27.36350423734933
rfingers 7.125019999999999
rthumb 5.53780624624787 -57.294904174554695
